<?xml version="1.0" encoding="UTF-8" standalone="no"?><!-- Generator: Gravit.io --><svg xmlns="http://www.w3.org/2000/svg" xmlns:xlink="http://www.w3.org/1999/xlink" style="isolation:isolate" viewBox="0 0 1842 1230" width="1842pt" height="1230pt"><defs><clipPath id="_clipPath_SG34DW4l3wwTv4LUxtNqQiCqFYn0Mx0z"><rect width="1842" height="1230"/></clipPath></defs><g clip-path="url(#_clipPath_SG34DW4l3wwTv4LUxtNqQiCqFYn0Mx0z)"><path d="M 218.26 6 L 1642.74 6 C 1757.958 6 1851.5 99.542 1851.5 214.76 L 1851.5 1025.24 C 1851.5 1140.458 1757.958 1234 1642.74 1234 L 218.26 1234 C 103.042 1234 9.5 1140.458 9.5 1025.24 L 9.5 214.76 C 9.5 99.542 103.042 6 218.26 6 Z" style="stroke:none;fill:#DDE9FF;stroke-miterlimit:10;"/><path d="M 218.26 6 L 1642.74 6 C 1757.958 6 1851.5 99.542 1851.5 214.76 L 1851.5 1025.24 C 1851.5 1140.458 1757.958 1234 1642.74 1234 L 218.26 1234 C 103.042 1234 9.5 1140.458 9.5 1025.24 L 9.5 214.76 C 9.5 99.542 103.042 6 218.26 6 Z" style="fill:none;stroke:#000000;stroke-width:5;stroke-linecap:square;stroke-miterlimit:2;"/><line x1="918" y1="0" x2="918" y2="1257" vector-effect="non-scaling-stroke" stroke-width="5" stroke-dasharray="20,25.8" stroke="rgb(215,33,33)" stroke-linejoin="miter" stroke-linecap="square" stroke-miterlimit="3"/><circle vector-effect="non-scaling-stroke" cx="918" cy="607.5" r="125" fill="none" stroke-width="5" stroke="rgb(46,27,215)" stroke-linejoin="miter" stroke-linecap="square" stroke-miterlimit="3"/><circle vector-effect="non-scaling-stroke" cx="917.9999999999999" cy="607.4999999999999" r="12.5" fill="rgb(46,27,215)"/><path d=" M 700 226 C 700 232.899 705.601 238.5 712.5 238.5 C 719.399 238.5 725 232.899 725 226 C 725 219.101 719.399 213.5 712.5 213.5 C 705.601 213.5 700 219.101 700 226 Z " fill="rgb(215,33,33)" vector-effect="non-scaling-stroke" stroke-width="1" stroke="rgb(215,33,33)" stroke-linejoin="miter" stroke-linecap="square" stroke-miterlimit="3"/><circle vector-effect="non-scaling-stroke" cx="1122.5" cy="1003.9999999999999" r="12.5" fill="rgb(215,33,33)"/><path d=" M 1110 226 C 1110 232.899 1115.601 238.5 1122.5 238.5 C 1129.399 238.5 1135 232.899 1135 226 C 1135 219.101 1129.399 213.5 1122.5 213.5 C 1115.601 213.5 1110 219.101 1110 226 Z " fill="rgb(215,33,33)"/><circle vector-effect="non-scaling-stroke" cx="712.5" cy="1003.9999999999999" r="12.5" fill="rgb(215,33,33)"/><line x1="204" y1="2" x2="204" y2="1230" vector-effect="non-scaling-stroke" stroke-width="3" stroke="rgb(215,33,33)" stroke-linejoin="miter" stroke-linecap="square" stroke-miterlimit="3"/><line x1="1632" y1="1" x2="1632" y2="1229" vector-effect="non-scaling-stroke" stroke-width="3" stroke="rgb(215,33,33)" stroke-linejoin="miter" stroke-linecap="square" stroke-miterlimit="3"/><line x1="653" y1="-6" x2="653" y2="1221" vector-effect="non-scaling-stroke" stroke-width="4" stroke="rgb(46,27,215)" stroke-linejoin="miter" stroke-linecap="square" stroke-miterlimit="3"/><line x1="1183" y1="-6" x2="1183" y2="1221" vector-effect="non-scaling-stroke" stroke-width="4" stroke="rgb(46,27,215)" stroke-linejoin="miter" stroke-linecap="square" stroke-miterlimit="3"/><circle vector-effect="non-scaling-stroke" cx="386" cy="226" r="106" fill="none" stroke-width="3" stroke="rgb(215,33,33)" stroke-linejoin="miter" stroke-linecap="square" stroke-miterlimit="3"/><clipPath id="_clipPath_ZxZP7kf7vd7KOxN24w78Z5BwpECuQNuv"><circle vector-effect="non-scaling-stroke" cx="386" cy="226" r="106" fill="none" stroke-width="3" stroke="rgb(215,33,33)" stroke-linejoin="miter" stroke-linecap="square" stroke-miterlimit="3"/></clipPath><g clip-path="url(#_clipPath_ZxZP7kf7vd7KOxN24w78Z5BwpECuQNuv)"><line x1="373.5" y1="226" x2="398.5" y2="226" vector-effect="non-scaling-stroke" stroke-width="1" stroke="rgb(215,33,33)" stroke-linejoin="miter" stroke-linecap="square" stroke-miterlimit="3"/><line x1="386" y1="238.5" x2="386" y2="213.5" vector-effect="non-scaling-stroke" stroke-width="1" stroke="rgb(215,33,33)" stroke-linejoin="miter" stroke-linecap="square" stroke-miterlimit="3"/></g><circle vector-effect="non-scaling-stroke" cx="386" cy="226" r="106" fill="transparent" stroke-width="3" stroke="rgb(215,33,33)" stroke-linejoin="miter" stroke-linecap="square" stroke-miterlimit="3"/><circle vector-effect="non-scaling-stroke" cx="386" cy="226" r="106" fill="none" stroke-width="3" stroke="rgb(215,33,33)" stroke-linejoin="miter" stroke-linecap="square" stroke-miterlimit="3"/><clipPath id="_clipPath_UDltm2YdauuxIbLY3m36f8GedYR0Opz6"><circle vector-effect="non-scaling-stroke" cx="386" cy="226" r="106" fill="none" stroke-width="3" stroke="rgb(215,33,33)" stroke-linejoin="miter" stroke-linecap="square" stroke-miterlimit="3"/></clipPath><g clip-path="url(#_clipPath_UDltm2YdauuxIbLY3m36f8GedYR0Opz6)"><line x1="373.5" y1="226" x2="398.5" y2="226" vector-effect="non-scaling-stroke" stroke-width="1" stroke="rgb(215,33,33)" stroke-linejoin="miter" stroke-linecap="square" stroke-miterlimit="3"/><line x1="386" y1="238.5" x2="386" y2="213.5" vector-effect="non-scaling-stroke" stroke-width="1" stroke="rgb(215,33,33)" stroke-linejoin="miter" stroke-linecap="square" stroke-miterlimit="3"/></g><circle vector-effect="non-scaling-stroke" cx="386" cy="226" r="106" fill="transparent" stroke-width="3" stroke="rgb(215,33,33)" stroke-linejoin="miter" stroke-linecap="square" stroke-miterlimit="3"/><circle vector-effect="non-scaling-stroke" cx="1456" cy="226" r="106" fill="none" stroke-width="3" stroke="rgb(215,33,33)" stroke-linejoin="miter" stroke-linecap="square" stroke-miterlimit="3"/><clipPath id="_clipPath_x45Hor1wY57uemurW88hGHS4MR9kARVg"><circle vector-effect="non-scaling-stroke" cx="1456" cy="226" r="106" fill="none" stroke-width="3" stroke="rgb(215,33,33)" stroke-linejoin="miter" stroke-linecap="square" stroke-miterlimit="3"/></clipPath><g clip-path="url(#_clipPath_x45Hor1wY57uemurW88hGHS4MR9kARVg)"><line x1="1443.5" y1="226" x2="1468.5" y2="226" vector-effect="non-scaling-stroke" stroke-width="1" stroke="rgb(215,33,33)" stroke-linejoin="miter" stroke-linecap="square" stroke-miterlimit="3"/><line x1="1456" y1="238.5" x2="1456" y2="213.5" vector-effect="non-scaling-stroke" stroke-width="1" stroke="rgb(215,33,33)" stroke-linejoin="miter" stroke-linecap="square" stroke-miterlimit="3"/></g><circle vector-effect="non-scaling-stroke" cx="1456" cy="226" r="106" fill="transparent" stroke-width="3" stroke="rgb(215,33,33)" stroke-linejoin="miter" stroke-linecap="square" stroke-miterlimit="3"/><circle vector-effect="non-scaling-stroke" cx="386" cy="1004" r="106" fill="none" stroke-width="3" stroke="rgb(215,33,33)" stroke-linejoin="miter" stroke-linecap="square" stroke-miterlimit="3"/><clipPath id="_clipPath_CM4KQCZhgpFdMdBzKUq99c7zEWwDiXBD"><circle vector-effect="non-scaling-stroke" cx="386" cy="1004" r="106" fill="none" stroke-width="3" stroke="rgb(215,33,33)" stroke-linejoin="miter" stroke-linecap="square" stroke-miterlimit="3"/></clipPath><g clip-path="url(#_clipPath_CM4KQCZhgpFdMdBzKUq99c7zEWwDiXBD)"><line x1="373.5" y1="1004" x2="398.5" y2="1004" vector-effect="non-scaling-stroke" stroke-width="1" stroke="rgb(215,33,33)" stroke-linejoin="miter" stroke-linecap="square" stroke-miterlimit="3"/><line x1="386" y1="1016.5" x2="386" y2="991.5" vector-effect="non-scaling-stroke" stroke-width="1" stroke="rgb(215,33,33)" stroke-linejoin="miter" stroke-linecap="square" stroke-miterlimit="3"/></g><circle vector-effect="non-scaling-stroke" cx="386" cy="1004" r="106" fill="transparent" stroke-width="3" stroke="rgb(215,33,33)" stroke-linejoin="miter" stroke-linecap="square" stroke-miterlimit="3"/><circle vector-effect="non-scaling-stroke" cx="1456" cy="1004" r="106" fill="none" stroke-width="3" stroke="rgb(215,33,33)" stroke-linejoin="miter" stroke-linecap="square" stroke-miterlimit="3"/><clipPath id="_clipPath_uED7gA7AZtfa8U1YmK5W4XQoJIj3XYPB"><circle vector-effect="non-scaling-stroke" cx="1456" cy="1004" r="106" fill="none" stroke-width="3" stroke="rgb(215,33,33)" stroke-linejoin="miter" stroke-linecap="square" stroke-miterlimit="3"/></clipPath><g clip-path="url(#_clipPath_uED7gA7AZtfa8U1YmK5W4XQoJIj3XYPB)"><line x1="1443.5" y1="1004" x2="1468.5" y2="1004" vector-effect="non-scaling-stroke" stroke-width="1" stroke="rgb(215,33,33)" stroke-linejoin="miter" stroke-linecap="square" stroke-miterlimit="3"/><line x1="1456" y1="1016.5" x2="1456" y2="991.5" vector-effect="non-scaling-stroke" stroke-width="1" stroke="rgb(215,33,33)" stroke-linejoin="miter" stroke-linecap="square" stroke-miterlimit="3"/></g><circle vector-effect="non-scaling-stroke" cx="1456" cy="1004" r="106" fill="transparent" stroke-width="3" stroke="rgb(215,33,33)" stroke-linejoin="miter" stroke-linecap="square" stroke-miterlimit="3"/><path d=" M 1632 660 C 1598.885 660 1572 633.115 1572 600 C 1572 566.885 1598.885 540 1632 540 L 1632 660 L 1632 660 Z " fill="rgb(46,27,215)" fill-opacity="0.5" vector-effect="non-scaling-stroke" stroke-width="3" stroke="rgb(215,33,33)" stroke-linejoin="miter" stroke-linecap="square" stroke-miterlimit="3"/><path d=" M 203 667.5 C 236.115 667.5 263 640.615 263 607.5 C 263 574.385 236.115 547.5 203 547.5 L 203 667.5 L 203 667.5 Z " fill="rgb(46,27,215)" fill-opacity="0.5" vector-effect="non-scaling-stroke" stroke-width="3" stroke="rgb(215,33,33)" stroke-linejoin="miter" stroke-linecap="square" stroke-miterlimit="3"/><rect x="178" y="555" width="25" height="105" transform="matrix(1,0,0,1,0,0)" fill="none" vector-effect="non-scaling-stroke" stroke-width="3" stroke="rgb(215,33,33)" stroke-linejoin="miter" stroke-linecap="square" stroke-miterlimit="2"/><rect x="1632" y="547.5" width="25" height="105" transform="matrix(1,0,0,1,0,0)" fill="none" vector-effect="non-scaling-stroke" stroke-width="3" stroke="rgb(215,33,33)" stroke-linejoin="miter" stroke-linecap="square" stroke-miterlimit="2"/></g></svg>